<svg width="16" height="16" viewBox="0 0 16 16" fill="none" xmlns="http://www.w3.org/2000/svg">
<path d="M16 8C16 3.58206 12.4179 0 8 0C3.58206 0 0 3.58206 0 8C0 11.9927 2.92505 15.3025 6.75011 15.9032V10.313H4.71832V8H6.75011V6.2371C6.75011 4.23232 7.94487 3.12417 9.7719 3.12417C10.6472 3.12417 11.5629 3.28055 11.5629 3.28055V5.24933H10.5538C9.5604 5.24933 9.24989 5.86584 9.24989 6.49923V8H11.4684L11.114 10.313H9.24989V15.9032C13.075 15.3036 16 11.9938 16 8Z" fill="#1977F3"/>
<path d="M11.114 10.3129L11.4684 7.99985H9.24989V6.49908C9.24989 5.86682 9.55927 5.24918 10.5538 5.24918H11.5629V3.2804C11.5629 3.2804 10.6472 3.12402 9.7719 3.12402C7.94487 3.12402 6.7501 4.23104 6.7501 6.23695V7.99985H4.71832V10.3129H6.7501V15.9031C7.15736 15.9672 7.57474 15.9998 8 15.9998C8.42526 15.9998 8.84264 15.9661 9.24989 15.9031V10.3129H11.114Z" fill="#FEFEFE"/>
</svg>
