<svg xmlns="http://www.w3.org/2000/svg" width="16" height="16" fill="none"><path d="M11.234 0H4.766A4.771 4.771 0 0 0 0 4.766v6.467A4.772 4.772 0 0 0 4.766 16h6.467A4.772 4.772 0 0 0 16 11.234V4.766A4.771 4.771 0 0 0 11.234 0zm3.157 11.234a3.16 3.16 0 0 1-3.157 3.157H4.766a3.16 3.16 0 0 1-3.157-3.157V4.766A3.16 3.16 0 0 1 4.766 1.61h6.467a3.16 3.16 0 0 1 3.157 3.157v6.467z" fill="url(#a)"/><path d="M8 3.862C5.718 3.862 3.862 5.718 3.862 8S5.718 12.138 8 12.138 12.138 10.282 12.138 8 10.282 3.862 8 3.862zm0 6.667A2.53 2.53 0 0 1 5.471 8 2.53 2.53 0 0 1 8 5.471 2.53 2.53 0 0 1 10.529 8 2.53 2.53 0 0 1 8 10.529z" fill="url(#a)"/><path d="M12.146 4.885a.99.99 0 1 0 0-1.983.99.99 0 1 0 0 1.983z" fill="url(#b)"/><defs><linearGradient id="a" x1="8" y1="15.953" x2="8" y2=".124" gradientUnits="userSpaceOnUse"><stop stop-color="#e09b3d"/><stop offset=".3" stop-color="#c74c4d"/><stop offset=".6" stop-color="#c21975"/><stop offset="1" stop-color="#7024c4"/></linearGradient><linearGradient id="b" x1="12.146" y1="15.954" x2="12.146" y2=".124" gradientUnits="userSpaceOnUse"><stop stop-color="#e09b3d"/><stop offset=".3" stop-color="#c74c4d"/><stop offset=".6" stop-color="#c21975"/><stop offset="1" stop-color="#7024c4"/></linearGradient></defs></svg>