<svg xmlns="http://www.w3.org/2000/svg" width="18" height="14" fill="none"><path fill="#edc139" d="M15.104 4.647l-.092-.038c.014-.024.028-.068.044-.069l.49-.003c.022-.074.26-.147 0-.22-.171.01-.07-.18-.17-.23-.08-.038-.02-.09.018-.112.324-.191.593-.504 1.033-.434.162.026.332.005.495.005.07 0 .176-.011.165.082-.035.254.2.325.292.488.063.108.162.271-.095.314-.192.033.169.201-.057.26-.082.022-.166.102-.041.234.074.08.026.232-.089.33-.259.228-.304.568-.43.865-.033.075.02.126.039.19.119.396.271.77.543 1.096.102.123.207.284.174.474-.028.157.084.228.192.286.029.015.132-.033.132-.05-.004-.154.056-.317-.106-.451-.231-.19-.364-.463-.507-.721-.223-.402-.25-.799.088-1.156.11-.117.121-.29.265-.391.093-.066.073-.195.011-.29-.04-.06-.121-.108.018-.13.085-.013.125.027.132.121a.968.968 0 01-.113.558c-.038.07-.006.199-.022.358-.007.082-.11.169-.088.283.031-.013.073-.017.093-.04.053-.061.127-.105.187-.06.105.08-.026.132-.057.145-.177.072-.03.191-.042.279-.063.488-.07.5.203.868.093.125.05.26.13.392.142.229-.015.402-.3.396-.07-.001-.147.029-.203-.044-.03-.04-.08-.086-.112-.011-.02.044-.023.101.027.149.08.077.166.106.276.137.306.088.41.357.361.705-.024.174-.025.341-.11.507-.063.12.066.313-.058.407-.084.064-.279-.009-.353.057-.16.143-.23-.084-.372-.046-.169.044-.064-.218-.207-.259-.047-.013-.118-.086-.11-.11.026-.084.114-.055.181-.062.085-.008.26.007.235-.052-.079-.194.224-.298.08-.493-.1-.132-.127-.302-.344-.352-.168-.04-.177-.303-.382-.382-.14-.053-.193-.015-.272.063-.118.118.031.165.075.187.166.091.006.297.153.382.048.027.055.06.006.077-.19.066-.254.297-.455.341-.126.03-.231-.05-.342-.077-.099-.025.014.223-.108.317-.095.074-.34.157-.448.084-.115-.077-.204-.178-.342-.239-.155-.066.152-.21-.008-.344-.046-.04.089-.053.15-.06.19-.022.372.009.569-.094.137-.071.172-.15.132-.227-.088-.166-.085-.334-.112-.507-.045-.282-.011-.506.187-.595.08-.035.15-.08.225-.12.21-.115.315-.272.256-.388-.088-.18-.433-.335-.603-.273-.044.308-.326.174-.488.264-.117.064-.22.116-.278.262-.029.072-.025.184-.105.229-.059.033-.064-.11-.155-.064-.082.044-.092.22-.231.143-.18-.099-.232-.3-.326-.462-.01-.017.1-.146.148-.143.475.022.637-.413.942-.631.191-.137.148-.313-.057-.48-.104-.083-.172-.186-.268-.62-.042-.19-.05-.342-.283-.379-.066-.011-.125-.121-.165-.198-.086-.165-.15-.347-.382-.143-.025.022-.177-.121-.148-.154.15-.169.03-.159-.088-.155-.214.005-.144-.066-.055-.165.025-.027.026-.103-.028-.146a.398.398 0 01-.07-.074c.1-.11.284.002.381-.154.033-.05.135-.007.181.06.1.142.257.224.331.413.08.207.365.251.537.397.187.07.408-.074.556.036-.086-.11-.336.03-.445-.145zM2.896 4.647l.093-.038c-.014-.024-.029-.068-.044-.069l-.49-.003c-.022-.074-.26-.147 0-.22.17.01.07-.18.17-.23.08-.038.019-.09-.019-.112-.323-.191-.593-.504-1.033-.434-.161.026-.331.005-.494.005-.071 0-.177-.011-.166.082.035.254-.199.325-.291.488-.063.108-.163.271.095.314.192.033-.17.201.057.26.082.022.166.102.04.234-.073.08-.026.232.09.33.259.228.304.568.43.865.033.075-.02.126-.04.19-.118.396-.27.77-.542 1.096-.103.123-.208.284-.174.474.027.157-.084.228-.192.286-.03.015-.133-.033-.133-.05.005-.154-.055-.317.106-.451.232-.19.364-.463.508-.721.223-.402.25-.799-.089-1.156-.11-.117-.121-.29-.264-.391C.42 5.33.44 5.2.503 5.106c.04-.06.12-.108-.018-.13-.085-.013-.126.027-.133.121a.967.967 0 00.113.558c.039.07.007.199.022.358.008.082.11.169.088.283-.03-.013-.072-.017-.092-.04-.053-.061-.127-.105-.188-.06-.105.08.027.132.057.145.177.072.031.191.042.279.063.488.07.5-.203.868-.092.125-.05.26-.13.392-.141.229.016.402.301.396.069-.001.146.029.202-.044.031-.04.08-.086.113-.011.019.044.022.101-.028.149a.584.584 0 01-.276.137c-.305.088-.41.357-.36.705.024.174.025.341.11.507.063.12-.066.313.057.407.084.064.28-.009.353.057.16.143.23-.084.372-.046.17.044.064-.218.208-.259.046-.013.118-.086.11-.11-.026-.084-.115-.055-.182-.062-.085-.008-.26.007-.235-.052.08-.194-.224-.298-.08-.493.1-.132.127-.302.345-.352.168-.04.176-.303.382-.382.139-.053.193-.015.271.063.118.118-.03.165-.075.187-.165.091-.005.297-.152.382-.049.027-.055.06-.007.077.19.066.254.297.455.341.127.03.232-.05.342-.077.1-.025-.013.223.108.317.095.074.34.157.448.084.115-.077.205-.178.342-.239.155-.066-.152-.21.008-.344.047-.04-.088-.053-.149-.06-.19-.022-.373.009-.57-.094-.136-.071-.171-.15-.132-.227.089-.166.085-.334.113-.507.044-.282.01-.506-.188-.595-.08-.035-.15-.08-.225-.12-.21-.115-.314-.272-.256-.388.088-.18.434-.335.604-.273.044.308.325.174.488.264.117.064.22.116.278.262.028.072.024.184.105.229.058.033.064-.11.154-.064.083.044.093.22.232.143.179-.099.232-.3.325-.462.011-.017-.099-.146-.148-.143-.474.022-.636-.413-.942-.631-.191-.137-.148-.313.057-.48.104-.083.173-.186.269-.62.041-.19.05-.342.282-.379.066-.011.126-.121.166-.198.086-.165.149-.347.381-.143.026.022.177-.121.148-.154-.15-.169-.03-.159.089-.155.214.005.143-.066.055-.165-.026-.027-.027-.103.027-.146a.397.397 0 00.07-.074c-.1-.11-.284.002-.38-.154-.034-.05-.135-.007-.182.06-.1.142-.257.224-.33.413-.081.207-.365.251-.537.397-.188.07-.409-.074-.556.036.086-.11.335.03.444-.145z"/><path fill="#eec239" d="M1.677 12.688H.846V14H.183v-3.21h1.653v.536h-.99v.829h.83zM3.579 12.61h-.832v.859H3.8V14H2.085v-3.21h1.71v.536H2.747v.765h.832zM4.053 14v-3.21h.99c.282 0 .535.065.757.192.224.127.399.307.524.543.125.233.188.5.188.797v.148c0 .298-.062.564-.186.796a1.313 1.313 0 01-.519.54 1.517 1.517 0 01-.758.194zm.663-2.674v2.143h.32c.26 0 .457-.085.594-.254.137-.169.207-.41.21-.725v-.17c0-.326-.068-.573-.203-.74-.136-.17-.334-.254-.594-.254zM8.354 12.61h-.831v.859h1.052V14H6.86v-3.21h1.71v.536H7.523v.765h.83zM10.35 12.825h-.86V14h-.662v-3.21h1.526c.38 0 .674.085.88.254s.309.408.309.716a.986.986 0 01-.144.55.967.967 0 01-.43.348l.696 1.311V14h-.712zm-.86-.535h.866c.167 0 .296-.042.387-.126a.456.456 0 00.137-.35.482.482 0 00-.13-.358c-.086-.087-.217-.13-.396-.13h-.863z"/><path fill="#494a4a" d="M11.993 10.79v.535h.883v.001h.243c.183 0 .316.032.4.097.086.063.128.168.128.313 0 .26-.167.393-.501.4h-.49v-.002h-.663v.468h1.27c.305.005.457.154.457.448 0 .13-.044.234-.132.309a.548.548 0 01-.365.11h-1.23V14h1.25c.365-.003.647-.084.844-.242.198-.16.296-.393.296-.701a.73.73 0 00-.143-.459.674.674 0 00-.39-.249.705.705 0 00.339-.262.73.73 0 00.121-.417c0-.288-.1-.506-.302-.655-.202-.15-.498-.225-.889-.225zM15.41 12.61h.61v-.519h-.61v-.765h.827v-.536h-1.49V14h1.494v-.531h-.831zM17.967 11.326h-.544V14h-.663v-2.674h-.31v-.536h1.517z"/><path fill="#333332" d="M13.427 5.946a4.41 4.41 0 01-4.415 4.405c-2.438 0-4.414-1.972-4.414-4.405s1.976-4.404 4.414-4.404a4.41 4.41 0 014.415 4.404z"/><path fill="#fff" fill-rule="evenodd" d="M9.012 9.91c2.195 0 3.973-1.774 3.973-3.964s-1.778-3.964-3.973-3.964S5.04 3.757 5.04 5.946 6.82 9.91 9.012 9.91zm0 .44c2.438 0 4.415-1.971 4.415-4.404s-1.976-4.404-4.415-4.404c-2.438 0-4.414 1.972-4.414 4.404s1.976 4.405 4.414 4.405z" clip-rule="evenodd"/><path fill="#fff" d="M9.012 4.295v.534h.883v.002h.244c.182 0 .316.032.4.097.085.063.128.167.128.313 0 .26-.167.393-.502.399h-.49v-.002h-.663v.468h1.27c.305.005.458.154.458.448 0 .131-.044.234-.133.309a.548.548 0 01-.364.11H9.012v.531h1.25c.366-.003.647-.083.845-.242s.296-.392.296-.701a.731.731 0 00-.144-.459.674.674 0 00-.389-.249.704.704 0 00.338-.262.73.73 0 00.122-.417c0-.288-.101-.506-.303-.654-.202-.15-.498-.225-.888-.225z"/><path fill="#333332" fill-rule="evenodd" d="M9.012 10.13c2.317 0 4.194-1.873 4.194-4.184S11.33 1.762 9.012 1.762 4.82 3.636 4.82 5.946s1.877 4.184 4.193 4.184zm0 .22c2.438 0 4.415-1.971 4.415-4.404s-1.976-4.404-4.415-4.404c-2.438 0-4.414 1.972-4.414 4.404s1.976 4.405 4.414 4.405z" clip-rule="evenodd"/><path fill="#eec239" d="M7.185 6.193h.831v1.311h.663v-3.21H7.026v.537h.99v.828h-.831z"/><path fill="#333332" fill-rule="evenodd" d="M8.409.559C8.646.39 9.012 0 9.012 0s.365.391.603.559c.238.167.832.112.832.112s-.137 1.62-.357 2.123c-.22.503-1.078.95-1.078.95s-.859-.447-1.078-.95C7.714 2.29 7.577.67 7.577.67s.594.055.832-.112z" clip-rule="evenodd"/><path fill="#fff" fill-rule="evenodd" d="M10.402 1.115c.03-.262.045-.444.045-.444s-.219.02-.443-.001C9.857.656 9.709.625 9.615.559a2.946 2.946 0 01-.291-.247A7.73 7.73 0 019.012 0S8.867.155 8.7.312A2.945 2.945 0 018.41.56c-.094.066-.243.097-.389.11-.225.022-.443.002-.443.002s.016.182.044.444c.058.518.167 1.345.313 1.679.219.503 1.078.95 1.078.95s.859-.447 1.078-.95c.146-.334.255-1.161.312-1.679zm-.443-.007a1.917 1.917 0 01-.203-.03 1.058 1.058 0 01-.396-.16 3.418 3.418 0 01-.348-.294 3.418 3.418 0 01-.348.294 1.058 1.058 0 01-.396.16 1.917 1.917 0 01-.203.03c.013.115.028.244.046.378.03.23.066.47.108.68.043.219.085.374.12.452.058.133.238.311.475.482.07.051.138.096.198.134A3.78 3.78 0 009.21 3.1c.237-.17.417-.349.475-.482.035-.078.077-.233.12-.453.042-.21.078-.45.108-.679.018-.134.033-.263.046-.378z" clip-rule="evenodd"/><path fill="#333332" fill-rule="evenodd" d="M10.224.68c.129 0 .223-.01.223-.01l-.021.223c-.047.462-.167 1.513-.336 1.9-.22.504-1.078.95-1.078.95s-.859-.446-1.078-.95c-.17-.387-.29-1.438-.336-1.9-.014-.137-.02-.222-.02-.222s.093.008.222.008c.194 0 .466-.02.609-.12.139-.098.321-.273.45-.4.09-.092.153-.159.153-.159s.063.067.154.158c.127.128.31.303.449.4.143.102.415.122.61.121zm-.02.22L10.11.898a1.948 1.948 0 01-.31-.035.84.84 0 01-.313-.124 3.828 3.828 0 01-.476-.423 3.828 3.828 0 01-.476.422.84.84 0 01-.313.125A1.948 1.948 0 017.821.9v.01c.017.158.04.374.071.605.03.232.068.476.11.693.043.22.09.396.134.498.084.192.309.4.548.573a4.102 4.102 0 00.328.212 3.711 3.711 0 00.328-.212c.24-.173.464-.38.548-.573.044-.102.09-.277.134-.498.042-.217.08-.461.11-.693.03-.231.054-.447.07-.606l.001-.01z" clip-rule="evenodd"/><g fill="#edc139"><path d="M9.012 1.102l.173.532h.562l-.454.33.173.532-.454-.33-.454.33.173-.533-.454-.329h.562zM6.254 0l.173.533h.562l-.454.329.173.532-.454-.329-.454.33.173-.533-.454-.33h.561zM4.377 1.431l.174.533h.56l-.453.329.173.532-.454-.329-.454.33.173-.533-.454-.33h.562zM11.771 0l-.173.533h-.561l.454.329-.174.532.454-.329.454.33-.173-.533.454-.33h-.561zM13.648 1.431l-.173.533h-.562l.454.329-.173.532.454-.329.454.33-.173-.533.454-.33h-.561z"/></g></svg>