<svg fill="none" height="16" viewBox="0 0 16 16" width="16" xmlns="http://www.w3.org/2000/svg"><circle cx="8" cy="8" fill="#fff" r="7.25" stroke="#b7322e" stroke-width="1.5"/><g fill="#000"><path d="m5.59262 10.4332h-.80625v-3.71662l-.78637.35762v-.78877l1.50745-.72527h.08517z"/><path d="m9.08162 6.86029c0 .23619-.04259.44564-.12775.62835-.08517.18271-.20251.32865-.35202.43783.17033.11364.3047.27072.40312.47126.09841.1983.14762.43226.14762.70187 0 .43226-.10598.77429-.31796 1.0261-.21197.2495-.50059.3743-.86586.3743s-.65578-.1248-.87154-.3743c-.21575-.25181-.32363-.59384-.32363-1.0261 0-.26961.04921-.50468.14762-.70522.09842-.20053.23374-.3565.40596-.46791-.15141-.10918-.26969-.25512-.35486-.43783s-.12775-.39216-.12775-.62835c0-.42558.10125-.75869.30376-.99933s.4741-.36096.81476-.36096c.34446 0 .61699.12143.81761.3643.20061.24287.30092.57487.30092.99599zm-1.11285 2.85428c.12113 0 .21387-.06016.27821-.18048.06624-.12255.09936-.29189.09936-.50802s-.03406-.38547-.1022-.50802c-.06813-.12255-.16181-.18383-.28105-.18383-.11923 0-.21386.06128-.28388.18383-.06814.12255-.10221.29189-.10221.50802s.03407.38547.10221.50802c.07002.12032.16654.18048.28956.18048zm.31228-2.80414c0-.1894-.0265-.34091-.07949-.45455-.0511-.11363-.13059-.17045-.23847-.17045-.1022 0-.17979.0557-.23278.16711-.053.10918-.07949.26181-.07949.45789 0 .19162.02649.34648.07949.46457.05299.11586.13248.1738.23846.1738.10599 0 .18453-.05794.23563-.1738.0511-.11809.07665-.27295.07665-.46457z"/><path d="m11.1966 7.70588h.8034v.87901h-.8034v1.3603h-.7608v-1.3603h-.81763v-.87901h.81763v-1.30347h.7608z"/></g></svg>