<svg fill="none" height="16" viewBox="0 0 16 16" width="16" xmlns="http://www.w3.org/2000/svg"><path d="m4.62866.0576283 6.60354-.0576283 4.7102 4.62866.0576 6.60354-4.6287 4.7102-6.60351.0576-4.7101619-4.6287-.0576281-6.60351z" fill="#fff"/><path clip-rule="evenodd" d="m5.05159 1.05398-4.04801 4.11928.0504 5.77514 4.11928 4.048 5.77514-.0504 4.048-4.1193-.0504-5.77511-4.1193-4.04801zm6.18061-1.05398-6.60354.0576283-4.62866 4.7101617.0576281 6.60351 4.7101619 4.6287 6.60351-.0576 4.6287-4.7102-.0576-6.60354z" fill="#e53e33" fill-rule="evenodd"/><path d="m5.05008 1.05042 5.77812-.05042 4.1214 4.05008.0504 5.77812-4.0501 4.1214-5.77808.0504-4.1214-4.0501-.05042-5.77808z" fill="#e53e33"/><g fill="#fff"><path clip-rule="evenodd" d="m5.473 2.04677-3.46942 3.53052.04319 4.94971 3.53052 3.4694 4.94971-.0432 3.4694-3.5305-.0432-4.9497-3.5305-3.46942zm5.3552-1.04677-5.77812.05042-4.05008 4.1214.05042 5.77808 4.1214 4.0501 5.77808-.0504 4.0501-4.1214-.0504-5.77812z" fill-rule="evenodd"/><path d="m11.6883 8.62515c-.2793-.27917-.6905-.30432-.9698-.02512l-.79839.79794c-.20783.20753-.4583.20797-.6045.03547-.09685-.1143-.05863-.46681-.03149-.69041l.40041-3.29121c.03576-.29404-.17371-.5781-.46788-.61383-.29413-.03576-.56157.19035-.59736.48433l-.44166 2.58505c-.02308.06431-.07259.07541-.07816-.01115l-.15032-3.35997c0-.29618-.2402-.53625-.53652-.53625-.29634 0-.53654.24007-.53654.53625l-.01057 3.38512c.0028.03906-.03072.05025-.03677.00563l-.47732-2.64236c-.05267-.29147-.33177-.50183-.62335-.44916-.29163.05263-.48529.34831-.43266.63972l.42504 3.09215c.00044.05501-.01803.08644-.04421.01592l-.63409-1.69526c-.09921-.27908-.40594-.44173-.68518-.3426-.27921.09914-.42519.4225-.32602.70154l1.11161 3.63165c.0058.02.01195.0399.01825.0597l.00232.0075c.00021.0006.00048.0011.00067.0017.30784.9475 1.19823 1.6325 2.24884 1.6325.67253 0 1.37109-.2371 1.90286-.6449h.00006c.57436-.3457 2.41453-2.32403 2.41453-2.32403.2793-.27918.2376-.70668-.0418-.98592z"/></g></svg>