<svg width="32" height="14" viewBox="0 0 32 14" xmlns="http://www.w3.org/2000/svg">
    <g fill="#767B85" fill-rule="evenodd">
        <path d="M25 0c1.271 0 2.443.26 3.516.78 1.073.519 1.922 1.226 2.547 2.122.625.896.937 1.873.937 2.93 0 1.057-.312 2.034-.938 2.93-.625.896-1.473 1.604-2.546 2.123-1.073.52-2.245.78-3.516.78a9.18 9.18 0 0 1-1.133-.074c-1.031 1.064-2.229 1.799-3.594 2.206a5.13 5.13 0 0 1-.89.2.277.277 0 0 1-.239-.082.45.45 0 0 1-.116-.186l-.02-.078c-.016-.033-.017-.07-.004-.119a.527.527 0 0 0 .015-.072v-.019c-.001-.007.003-.023.014-.046l.072-.127.103-.143.558-.72.146-.216c.019-.03.04-.062.06-.096.107-.17.192-.325.255-.465l.1-.239.11-.299c.079-.218.146-.449.204-.692a6.144 6.144 0 0 1-1.934-2.005 4.941 4.941 0 0 1-.152-4.825 5.95 5.95 0 0 1 1.492-1.864c.625-.522 1.37-.937 2.234-1.244a8.069 8.069 0 0 1 2.72-.46zm0 1a7.07 7.07 0 0 0-2.384.403c-.756.268-1.397.624-1.928 1.068a4.95 4.95 0 0 0-1.244 1.554 3.941 3.941 0 0 0 .123 3.859c.344.58.8 1.08 1.372 1.503l.253.177.582.385-.16.679a7.47 7.47 0 0 1-.235.799l-.124.333-.116.277a4.342 4.342 0 0 1-.197.385l-.048.077.243-.114a7.302 7.302 0 0 0 1.781-1.26l.231-.23.347-.358.495.062c.35.044.687.065 1.009.065 1.122 0 2.145-.226 3.08-.68.922-.446 1.638-1.042 2.162-1.795.51-.729.758-1.506.758-2.357 0-.85-.249-1.628-.757-2.357-.525-.753-1.24-1.35-2.163-1.796C27.145 1.227 26.122 1 25 1zM14 6.999 7.618 0v4.192h-.742a6.831 6.831 0 0 0-4.862 2.014A6.831 6.831 0 0 0 0 11.07v2.936l1.225-1.342a8.79 8.79 0 0 1 6.393-2.858v4.192L14 7zM.82 11.895v-.826c0-1.618.63-3.139 1.774-4.282a6.016 6.016 0 0 1 4.282-1.774h1.562V2.118l4.451 4.88-4.45 4.882V8.984h-.737A9.612 9.612 0 0 0 .82 11.895z"/>
    </g>
</svg>
