<svg xmlns="http://www.w3.org/2000/svg" xmlns:xlink="http://www.w3.org/1999/xlink" fill="none" height="16" width="24"><g fill="#696a6a"><path d="M2.154 10.818h.144l-.133.557c-.02.083-.016.145.011.186s.078.062.152.062.134-.021.181-.062.081-.104.101-.186l.133-.557h.145l-.137.571c-.03.124-.083.217-.158.278s-.175.092-.298.092-.207-.031-.253-.092-.054-.154-.024-.279z"/><path d="M2.869 11.735l.228-.954.434.561.035.051.035.061.152-.636h.134l-.228.953-.443-.571a.51.51 0 0 1-.033-.049.46.46 0 0 1-.028-.054l-.153.638zm1.007 0l.22-.917h.145l-.22.917zm.354 0l.22-.917h.499l-.03.127h-.354l-.055.229h.354l-.031.131h-.354l-.103.431zm.659 0l.22-.917h.145l-.22.917z"/><use xlink:href="#B"/><path d="M6.087 11.601h.122a.66.66 0 0 0 .154-.014.29.29 0 0 0 .099-.046.39.39 0 0 0 .102-.111c.027-.044.048-.095.062-.154a.4.4 0 0 0 .011-.154.21.21 0 0 0-.05-.111c-.02-.022-.047-.037-.08-.046s-.087-.014-.162-.014h-.053-.053zm-.178.135l.22-.918h.196c.127 0 .216.007.264.02a.27.27 0 0 1 .121.066.28.28 0 0 1 .08.156c.011.064.007.136-.012.217s-.05.154-.092.216a.55.55 0 0 1-.155.156c-.046.031-.096.053-.149.066s-.132.02-.238.02h-.039zm1.576-.534h.037c.081 0 .136-.009.168-.027s.052-.05.063-.095.006-.083-.018-.103-.074-.03-.151-.03h-.037zm-.038.122l-.099.412h-.136l.22-.917h.22a.66.66 0 0 1 .141.011c.029.007.053.019.072.036s.038.05.045.086a.27.27 0 0 1-.005.119.37.37 0 0 1-.053.12c-.025.037-.054.066-.087.086a.27.27 0 0 1-.089.036c-.033.007-.081.011-.146.011h-.029z"/><path d="M8.085 11.375h.249l-.042-.209-.005-.046-.003-.058-.029.056-.028.048zm.316.36l-.045-.236h-.354l-.16.236h-.153l.661-.954.204.954zm.361 0l.1-.42-.182-.498h.153l.113.311.009.031.01.042.028-.041.028-.036.266-.308h.145l-.427.498-.1.42zm1.387-.453c0-.007.002-.027.006-.059l.007-.066-.03.063c-.011.021-.025.042-.041.064l-.351.489-.114-.499-.011-.06-.005-.057-.019.06-.028.066-.204.452h-.134l.44-.956.125.579.008.046.011.079a1.33 1.33 0 0 1 .064-.1l.017-.025.396-.578-.013.956h-.135z"/><use xlink:href="#B" x="5.147"/><use xlink:href="#C"/><path d="M12.538 10.945l-.189.791h-.145l.189-.791h-.238l.03-.127h.619l-.03.127z"/><path d="M12.69 11.552l.129-.055c.001.041.014.072.038.094s.059.032.105.032a.17.17 0 0 0 .112-.037c.032-.025.052-.058.062-.099.013-.054-.019-.102-.096-.144l-.025-.014c-.087-.049-.142-.094-.165-.134s-.028-.089-.014-.146c.018-.075.057-.135.118-.182s.131-.07.211-.07c.066 0 .118.013.156.039s.06.064.065.113l-.128.06c-.011-.029-.026-.05-.044-.063s-.041-.02-.069-.02a.17.17 0 0 0-.101.031c-.028.02-.046.049-.055.084-.013.055.025.107.115.154.095.051.146.091.169.131s.028.09.014.149a.36.36 0 0 1-.13.207.37.37 0 0 1-.235.077c-.076 0-.134-.018-.174-.054s-.06-.087-.059-.154zm1.073.183l.22-.917h.145l-.22.917z"/><use xlink:href="#C" x="3.061"/><path d="M15.6 10.945l-.189.791h-.145l.189-.791h-.238l.03-.127h.619l-.03.127z"/><use xlink:href="#B" x="10.515"/><path d="M16.695 11.209h.026c.077 0 .13-.009.16-.027s.05-.051.061-.098.007-.086-.015-.107-.07-.031-.143-.031h-.026zm-.037.116l-.098.411h-.136l.22-.917h.203c.059 0 .105.004.135.012s.056.021.075.039.037.051.044.086.005.073-.005.115c-.017.073-.049.131-.093.173s-.102.066-.171.075l.208.417h-.164l-.199-.411z"/><path d="M17.125 11.735l.22-.917h.499l-.03.127h-.354l-.055.229h.354l-.031.131h-.354l-.103.431zm.887-.36h.249l-.042-.209-.006-.046-.003-.058-.029.056-.028.048zm.316.36l-.045-.236h-.354l-.16.236h-.153l.661-.954.204.954z"/><path d="M19.426 11.041a.32.32 0 0 0-.111-.081c-.041-.018-.087-.027-.138-.027-.098 0-.185.032-.262.096s-.127.148-.152.25-.013.181.031.245.112.097.203.097c.053 0 .106-.01.158-.029s.105-.048.159-.087l-.04.169a.56.56 0 0 1-.298.086.45.45 0 0 1-.181-.034c-.053-.023-.096-.057-.129-.101s-.054-.095-.063-.155a.49.49 0 0 1 .01-.19.62.62 0 0 1 .081-.19.64.64 0 0 1 .139-.156c.055-.045.114-.079.177-.102a.56.56 0 0 1 .195-.035c.052 0 .101.008.145.024s.084.039.122.071z"/><use xlink:href="#B" x="14.197"/></g><path d="M16.79 10.019h-.999L17.18 5h.999zm-.519-4.86c-.069-.096-.176-.144-.321-.144h-5.494l-.272.983h1v-.001h3.998l-.291 1.05h-3.998v-.002h-.999l-.829 2.994h1l.556-2.01h4.494a.64.64 0 0 0 .397-.144c.124-.096.206-.214.245-.355l.557-2.01c.041-.146.027-.267-.042-.363zM8.483 9.706a.46.46 0 0 1-.442.336H2.886c-.14 0-.245-.048-.313-.144s-.083-.214-.044-.355l1.258-4.528h1L3.662 9.059h4l1.123-4.044h1z" fill="#66686c"/><path d="M19.905 5.009l1.265 2.516-2.659 2.515z" fill="#27803b"/><path d="M19.018 5.009l1.264 2.516-2.66 2.515z" fill="#e9661c"/><defs ><path id="B" d="M5.243 11.735l.22-.917h.499l-.03.127h-.354l-.055.23h.354l-.031.131h-.354l-.071.296h.354l-.032.133z"/><path id="C" d="M11.056 11.735l.228-.954.434.561.035.051.036.061.152-.636h.134l-.228.953-.443-.571c-.012-.015-.023-.032-.033-.049a.53.53 0 0 1-.028-.054l-.153.638z"/></defs></svg>
