<svg xmlns="http://www.w3.org/2000/svg" fill="none" height="16" width="24"><path d="M21.928 6.772c-.181-.496-.676-.852-1.257-.852h-.012c-.378 0-.718.15-.96.391a1.36 1.36 0 0 0-.96-.391h-.012a1.36 1.36 0 0 0-.868.308V6.13c-.008-.097-.092-.174-.195-.174h-.891c-.109 0-.197.084-.197.189v4.624c0 .104.088.189.197.189h.891c.099 0 .181-.071.194-.163V7.476c0-.012 0-.022.002-.033.014-.148.128-.27.307-.285h.033.093.038c.075.006.138.032.188.07.078.059.121.149.121.249l.003 3.303c0 .105.088.189.197.189h.891c.105 0 .191-.08.196-.18V7.472a.31.31 0 0 1 .145-.266.37.37 0 0 1 .164-.052h.033.093.038c.193.016.309.156.309.318l.003 3.299c0 .104.088.189.197.189h.891c.108 0 .197-.084.197-.189V7.223a1.16 1.16 0 0 0-.067-.451zm-6.031-.803h-.509V5.18c0-.097-.08-.174-.18-.174-.012 0-.023.002-.034.004-.565.148-.452.896-1.483.96h-.023-.077c-.015 0-.029.002-.043.005h-.001.001a.19.19 0 0 0-.154.183v.851c0 .104.088.188.197.188h.538l-.001 3.611c0 .103.087.186.195.186h.881a.19.19 0 0 0 .194-.186V7.197h.499c.109 0 .197-.085.197-.188v-.851c0-.104-.088-.188-.197-.188z" fill="#54c1f0"/><path d="M12.692 5.969h-.891c-.108 0-.197.085-.197.188v1.761c-.002.109-.094.196-.209.196h-.373c-.116 0-.209-.089-.209-.199l-.003-1.757c0-.104-.088-.188-.197-.188h-.891c-.109 0-.197.085-.197.188v1.93c0 .733.547 1.256 1.314 1.256l.593.003c.104.011.185.095.185.197s-.079.184-.182.197l-1.318.007c-.109 0-.197.085-.197.188v.851c0 .104.088.188.197.188h1.457c.768 0 1.314-.522 1.314-1.256V6.157c0-.104-.088-.188-.197-.188zM4.069 7.53v.397.128c0 .11-.093.2-.209.2h-.565V7.202h.565c.115 0 .209.089.209.199zm.078-1.56H2.2c-.107 0-.193.083-.193.185v.834V9.68v1.1c0 .102.08.186.18.189h.017.891c.109 0 .197-.084.197-.188l.003-1.294h.852c.713 0 1.21-.473 1.21-1.157V7.128c0-.684-.497-1.159-1.21-1.159zm3.618 3.558v.133c0 .011-.002.021-.003.031s-.005.019-.008.028c-.028.075-.106.129-.198.129h-.371c-.116 0-.21-.084-.21-.187V9.5v-.433-.001-.047-.086-.001c0-.103.094-.186.21-.186h.371c.116 0 .21.084.21.187zm-.142-3.554H6.387c-.109 0-.198.079-.198.177v.331.467c0 .103.094.187.21.187h1.177a.2.2 0 0 1 .177.18v.11c-.01.097-.083.167-.172.175h-.583c-.775 0-1.327.492-1.327 1.183v.965.025c0 .687.475 1.176 1.245 1.176h1.615c.29 0 .525-.21.525-.468v-3.23c0-.783-.422-1.278-1.432-1.278z" fill="#233266"/></svg>
