<svg xmlns="http://www.w3.org/2000/svg" fill="none" height="16" width="24"><g fill="#0c0a6d"><path d="M4.549 8.315a.16.16 0 1 0 0-.32.16.16 0 1 0 0 .32zm-1.361-.429a.16.16 0 0 0 .132-.183.16.16 0 0 0-.183-.132.16.16 0 0 0-.132.183.16.16 0 0 0 .183.132zm1.361 1.932a.16.16 0 1 0 0-.32.16.16 0 1 0 0 .32zM5.904 8.39v.617c0 .094.077.171.171.171H7.46v-.96H6.075c-.094 0-.171.077-.171.171zm.48.149a.16.16 0 1 1 0 .32.16.16 0 1 1 0-.32z"/><path d="M5.501 7.295a.16.16 0 0 1 .102-.037H7.46v-.251a.16.16 0 0 0-.16-.16H2.16a.16.16 0 0 0-.16.16V10.1a.81.81 0 0 0 .03.217l.973-.973V8.18a.48.48 0 1 1 .32 0v1.23a.16.16 0 0 1-.047.113l-1.091 1.091a.81.81 0 0 0 .626.296H7.3a.16.16 0 0 0 .16-.16v-.612H6.03a.16.16 0 0 1-.035-.004l-1.031-.233a.48.48 0 1 1 .06-.315l1.024.232H7.46v-.32H6.075a.49.49 0 0 1-.491-.491V8.39a.49.49 0 0 1 .491-.491H7.46v-.32h-1.8l-.634.523a.46.46 0 0 1 .003.053.48.48 0 1 1-.96 0 .48.48 0 0 1 .811-.347zm1.324-.768V6.16a.16.16 0 0 0-.16-.16h-3.86c-.352 0-.652.226-.761.541a.49.49 0 0 1 .116-.014z"/></g><g fill="#ff7a00"><path d="M10.84 9.411c-.255 0-.487-.055-.695-.165a1.24 1.24 0 0 1-.487-.462c-.119-.196-.175-.421-.175-.67a1.28 1.28 0 0 1 .175-.666 1.24 1.24 0 0 1 .487-.462 1.45 1.45 0 0 1 .698-.168 1.45 1.45 0 0 1 .587.115 1.16 1.16 0 0 1 .444.33l-.373.344a.8.8 0 0 0-.63-.294c-.155 0-.294.035-.415.104a.75.75 0 0 0-.287.283.85.85 0 0 0-.1.415.85.85 0 0 0 .1.415.75.75 0 0 0 .287.287.85.85 0 0 0 .415.1c.251 0 .461-.099.63-.297l.373.344a1.16 1.16 0 0 1-.444.333c-.177.076-.374.115-.591.115zm1.922-1.715c.067-.093.156-.164.269-.211s.246-.072.394-.072v.516l-.125-.007c-.16 0-.285.045-.376.136s-.136.222-.136.401v.91h-.559V7.442h.534z"/><path d="M15.735 7.442l-.87 2.045c-.088.222-.198.378-.329.469s-.285.136-.469.136a.98.98 0 0 1-.297-.046c-.098-.031-.178-.074-.24-.129l.204-.398a.5.5 0 0 0 .147.09c.055.022.113.032.168.032.076 0 .139-.019.186-.057s.091-.097.129-.183l.007-.018-.835-1.941h.577l.541 1.307.544-1.307zm1.367-.029a.96.96 0 0 1 .487.125.87.87 0 0 1 .347.347c.084.148.125.321.125.519a1.06 1.06 0 0 1-.125.523.9.9 0 0 1-.347.347c-.146.081-.308.122-.487.122-.246 0-.439-.078-.58-.233v.899h-.559v-2.62h.534v.222c.139-.167.34-.251.605-.251zm-.097 1.526c.143 0 .26-.048.351-.143s.14-.228.14-.39a.53.53 0 0 0-.14-.387c-.091-.098-.208-.147-.351-.147a.47.47 0 0 0-.355.147c-.093.098-.136.224-.136.387s.045.293.136.39.211.143.355.143z"/><path d="M19.679 9.275c-.055.041-.123.072-.204.093a1.06 1.06 0 0 1-.251.029c-.229 0-.407-.059-.534-.175s-.186-.289-.186-.516v-.792h-.297v-.43h.297v-.469h.559v.469h.48v.43h-.48v.784c0 .081.02.144.061.19s.103.064.179.064a.36.36 0 0 0 .226-.072z"/><path d="M20.85 9.397a1.18 1.18 0 0 1-.548-.125.96.96 0 0 1-.376-.355c-.091-.15-.136-.321-.136-.512s.045-.362.136-.512.216-.267.376-.351.345-.129.548-.129.384.043.544.129.285.201.376.351a.97.97 0 0 1 .136.512.97.97 0 0 1-.136.512.96.96 0 0 1-.376.355c-.16.084-.341.125-.544.125zm0-.458c.143 0 .26-.048.351-.143s.14-.228.14-.39a.53.53 0 0 0-.14-.387c-.091-.098-.208-.147-.351-.147s-.262.049-.355.147a.53.53 0 0 0-.14.387c0 .162.047.293.14.39s.211.143.355.143z"/></g></svg>
