<svg xmlns="http://www.w3.org/2000/svg" fill="none" height="16" width="24"><path d="M7.798 11.61h1.264l.991-3.829H8.802zm6.48 0h1.264l.991-3.829h-1.264zm6.491 0h1.252L23 7.781h-1.264zM13.1 9.091h1.264c.173-.86-.359-1.297-1.598-1.297-1.437 0-2.403.732-2.738 1.978-.286 1.156.297 1.85 1.647 1.85 1.363 0 2.168-.437 2.503-1.426h-1.264c-.186.437-.508.655-.954.655-.607 0-.855-.385-.669-1.117.198-.758.669-1.182 1.276-1.182.396 0 .57.18.533.539zm6.493 0h1.264c.173-.86-.372-1.297-1.611-1.297-1.425 0-2.403.732-2.725 1.978-.297 1.156.285 1.85 1.636 1.85s2.156-.437 2.502-1.426h-1.263a.96.96 0 0 1-.954.655c-.607 0-.855-.385-.657-1.117.186-.758.657-1.182 1.264-1.182.397 0 .583.18.546.539z" fill="#004a7f"/><path d="M2.928 5.662C4.613 3.928 6.658 3.478 7.476 4.66s.099 3.571-1.586 5.306c-1.685 1.747-3.729 2.197-4.56 1.002-.805-1.194-.086-3.571 1.598-5.305z" fill="#f06321"/><path d="M4.044 4.737a6.22 6.22 0 0 0-.557.489C2.012 6.741 1.392 8.822 2.123 9.863c.756 1.04 2.564.655 4.076-.874.818-.822 1.363-1.773 1.586-2.659.062-.655-.025-1.233-.31-1.67-.644-.925-2.032-.848-3.432.077z" fill="#ae282e"/><path d="M6.175 4.93v.039c-.012.218-.136.488-.359.719-.334.334-.78.462-.967.27-.211-.205-.086-.656.248-1.015.347-.347.793-.462.978-.257.062.064.099.141.099.244zm-1.288 5.896c-.793.616-1.611.925-2.404.797.334.013.607-.373.83-.887.223-.527.347-1.014.458-1.477.161-.732.173-1.246.087-1.361-.136-.18-.433-.141-.781.064-.173.103-.396.039-.136-.295.272-.334 1.325-1.131 1.697-1.259.422-.116.892.051.731.527-.112.347-1.574 4.303-.483 3.892z" fill="#fff"/></svg>
