<svg xmlns="http://www.w3.org/2000/svg" fill="none" height="16" width="24"><clipPath id="A"><path d="M2 5h20v6.667H2z"/></clipPath><g clip-path="url(#A)"><g fill="#ed3338" fill-rule="evenodd"><path d="M13.809 8.205c-.36 0-.508-.297-.508-.629s.148-.633.508-.633.508.297.508.633-.147.629-.508.629zm0 .543c.746 0 1.314-.431 1.314-1.171S14.555 6.4 13.809 6.4s-1.315.431-1.315 1.176.568 1.171 1.315 1.171z"/><path d="M15.052 6.994h.447v.913c0 .534.169.84.868.84.195 0 .343-.026.49-.043l-.026-.504c-.079.013-.161.03-.239.03-.247 0-.312-.138-.312-.409v-.827h.547v-.543h-.547v-.776l-.768.272v.504h-.46zm4.508 1.701h.781V7.584h.009l.625 1.111h.946l-.85-1.214.785-1.029h-.855l-.651.943h-.009V5.678l-.781.269z"/><path d="M10.415 8.695h.781V7.584h.008l.625 1.111h.946l-.85-1.214.785-1.029h-.855l-.651.943h-.008V5.678l-.781.256zm7.274-.708c0-.218.211-.301.479-.301l.334.013c0 .266-.189.536-.488.536-.184 0-.325-.091-.325-.249zm1.594.719c-.035-.179-.044-.358-.044-.536v-.846c0-.693-.505-.942-1.089-.942a2.38 2.38 0 0 0-.914.161l.013.532c.22-.122.474-.17.729-.17.286 0 .518.083.523.392-.101-.017-.241-.03-.369-.03-.422 0-1.181.083-1.181.776 0 .493.404.715.856.715.325 0 .545-.126.725-.41h.009l.017.358z"/></g><path d="M20.302 10.459a.71.71 0 0 1 .009-.12.53.53 0 0 1 .029-.115c.013-.036.032-.069.055-.097s.052-.051.087-.068.076-.025.124-.025.085.009.118.026.063.041.086.07a.4.4 0 0 1 .058.099c.014.037.025.075.032.114a.68.68 0 0 1 .01.115c0 .037-.003.076-.01.115a.59.59 0 0 1-.032.114c-.015.036-.034.07-.058.099s-.052.053-.086.07-.073.026-.118.026-.089-.009-.124-.025-.064-.039-.087-.067a.34.34 0 0 1-.055-.098c-.014-.036-.023-.074-.029-.114s-.009-.08-.009-.12zm.733-.987h-.126v.65h-.004c-.004-.01-.01-.024-.021-.039a.33.33 0 0 0-.041-.051.36.36 0 0 0-.063-.05c-.025-.016-.053-.029-.085-.039s-.068-.015-.108-.016c-.076 0-.14.014-.193.04s-.097.063-.131.11a.49.49 0 0 0-.075.168.9.9 0 0 0-.024.214.79.79 0 0 0 .026.21c.017.064.044.12.079.169a.37.37 0 0 0 .132.112.4.4 0 0 0 .184.041.38.38 0 0 0 .189-.044c.053-.03.096-.077.13-.141h.004v.161h.126zm-1.927 1.495h.126v-.562c0-.034.003-.069.01-.104s.017-.068.031-.1a.3.3 0 0 1 .057-.085c.023-.025.052-.045.086-.059s.074-.022.12-.022c.058 0 .105.013.141.039a.22.22 0 0 1 .079.109c.016.047.024.103.024.167v.618h.127v-.65c0-.056-.006-.108-.019-.155s-.033-.089-.06-.124-.064-.062-.109-.082-.098-.029-.161-.03a.44.44 0 0 0-.136.019c-.038.012-.069.029-.094.049s-.046.043-.062.066-.029.048-.039.071h-.004v-.181h-.122l.007.121.001.118zm-.317-1.017h-.127v.562c0 .034-.003.069-.01.104s-.016.068-.031.1a.31.31 0 0 1-.056.085c-.023.025-.052.045-.086.059s-.074.022-.12.023a.24.24 0 0 1-.141-.039c-.036-.026-.062-.062-.078-.109s-.024-.103-.024-.167v-.618h-.126v.65a.6.6 0 0 0 .019.155c.013.047.033.089.061.124s.064.062.108.082.098.029.161.03c.053 0 .098-.007.136-.019a.29.29 0 0 0 .094-.049c.025-.02.046-.042.062-.066a.45.45 0 0 0 .039-.071h.004v.181h.122l-.007-.121-.001-.118zm-1.695 1.017h.139v-.656h.504v-.12h-.504v-.497h.528v-.12h-.667zm-1 0h.127V9.472h-.127zm-.428-.451l-.003.08a.46.46 0 0 1-.018.096c-.01.033-.025.064-.047.093s-.052.052-.09.07-.086.027-.146.028c-.039 0-.075-.006-.107-.018s-.057-.031-.076-.058-.029-.063-.029-.107a.21.21 0 0 1 .029-.111c.019-.03.045-.053.077-.071a.4.4 0 0 1 .111-.04c.041-.009.085-.015.13-.018l.134-.004h.036zm.012.451h.124l-.007-.068-.003-.069v-.076-.448c0-.088-.012-.16-.037-.216s-.064-.097-.117-.123a.46.46 0 0 0-.206-.039.63.63 0 0 0-.074.006l-.08.015-.079.022c-.025.009-.048.017-.067.027v.121c.047-.03.096-.051.146-.064a.59.59 0 0 1 .155-.019c.056 0 .102.01.136.029s.059.049.075.087a.4.4 0 0 1 .022.145v.052h-.024c-.045 0-.091.001-.139.003l-.143.014c-.047.007-.092.019-.133.034s-.079.036-.111.063-.058.059-.076.099-.028.088-.028.145c0 .018.002.04.007.065a.28.28 0 0 0 .028.075c.014.026.033.05.058.072s.058.04.098.054.089.021.147.021c.032 0 .064-.004.096-.012a.39.39 0 0 0 .093-.036c.029-.016.056-.035.08-.058a.3.3 0 0 0 .057-.081h.004zm-.906-1.017h-.126v.562a.58.58 0 0 1-.009.104.48.48 0 0 1-.031.1.32.32 0 0 1-.057.085c-.024.025-.052.045-.086.059s-.074.022-.12.023c-.058-.001-.105-.014-.14-.039s-.062-.062-.078-.109-.024-.103-.024-.167v-.618h-.127v.65a.6.6 0 0 0 .019.155c.013.047.033.089.061.124s.064.062.108.082.098.029.161.03a.44.44 0 0 0 .136-.019c.037-.012.069-.029.094-.049s.046-.042.062-.066.029-.047.039-.071h.004v.181h.122l-.007-.121-.001-.118zm-1.026 0h-.233v-.289l-.126.044v.245h-.201v.108h.201v.594c-.001.046.001.09.005.131s.013.077.028.108.038.056.069.073.075.027.131.027c.021 0 .041-.002.061-.005l.054-.011.039-.012-.008-.104a.41.41 0 0 1-.054.017.27.27 0 0 1-.063.007c-.034-.001-.061-.008-.081-.023s-.034-.035-.043-.061-.013-.053-.012-.084v-.658h.233zm-.759 0h-.126v.562a.57.57 0 0 1-.009.104c-.006.035-.017.068-.031.1s-.033.061-.057.085-.052.045-.086.059-.074.022-.12.023c-.058-.001-.104-.014-.14-.039s-.062-.062-.078-.109-.024-.103-.024-.167v-.618h-.126v.65a.58.58 0 0 0 .019.155c.012.047.033.089.061.124s.063.062.108.082a.41.41 0 0 0 .162.03.44.44 0 0 0 .135-.019.29.29 0 0 0 .094-.049c.025-.02.046-.042.062-.066a.48.48 0 0 0 .04-.071h.004v.181h.123l-.007-.121-.001-.118zm-2.57 1.017h.139V9.713h.004l.526 1.254h.118l.51-1.254h.004v1.254h.138V9.576h-.199l-.514 1.224-.512-1.224h-.215z" fill="#1f4578"/><g fill-rule="evenodd"><path d="M2.079 8.333c0-1.797 1.707-3.254 3.812-3.254s3.812 1.457 3.812 3.254-1.707 3.255-3.812 3.255-3.812-1.457-3.812-3.255z" fill="#1f4578"/><path d="M5.429 6.124l.886-.29.004 4.753-.893.297z" fill="#ed3338"/><path d="M5.955 9.088c-.385.46-.757.931-1.454.931-.984 0-1.451-.945-1.451-1.734 0-.759.365-1.657 1.323-1.657.416 0 .817.253 1.055.519v.644c-.199-.133-.646-.264-.937-.269-.608-.01-1.144.251-1.135.847.006.41.415.689.823.689.624 0 1.002-.566 1.318-.995l.375-.495c.351-.486.757-.931 1.454-.931.821 0 1.281.657 1.412 1.333h-.37c-.149-.219-.436-.353-.718-.353-.645 0-1.03.589-1.352 1.022l-.342.448zm2.804-.427c-.083.68-.467 1.366-1.306 1.368-.489.001-.872-.332-1.137-.739v-.472c.332.164.642.338 1.018.344.463.007.882-.17 1.055-.501z" fill="#fff"/></g></g></svg>
