<svg width="24" height="16" fill="none" xmlns="http://www.w3.org/2000/svg"><g clip-path="url(#a)"><g clip-path="url(#b)"><path d="M1.43 8.359c.008.032.027.044.041.06L2.78 9.904c.095.108.095.179.002.285l-.29.33c-.074.082-.144.082-.217-.002L.094 8.044a.324.324 0 0 1-.066-.335.259.259 0 0 1 .256-.183c.445 0 .89.003 1.335-.002.258-.002.468-.125.624-.36.011-.017.033-.034.024-.055-.01-.023-.034-.011-.052-.011H.136c-.084-.004-.134-.06-.135-.157v-.502c0-.122.048-.176.155-.176h2.057c.02 0 .05.01.06-.008.012-.024-.014-.045-.027-.065-.153-.234-.36-.353-.615-.355-.488-.003-.976 0-1.465 0-.121 0-.166-.05-.166-.189v-.478C.001 5.057.05 5 .147 5h3.559c.094 0 .145.056.145.163v.507c0 .107-.051.163-.145.164h-.728c-.063 0-.063 0-.034.06.05.1.09.205.117.315.01.041.028.055.066.054.189-.002.378 0 .566 0 .111 0 .158.053.158.18v.483c0 .115-.048.17-.149.171h-.566c-.041-.001-.06.013-.073.059-.18.63-.555 1.018-1.12 1.17a1.126 1.126 0 0 1-.325.033c-.062-.001-.124 0-.188 0Z" fill="#A6CFFF"/></g><path d="M9.99 6.957H8.955a.92.92 0 0 0-.116-.338.871.871 0 0 0-.224-.254 1.01 1.01 0 0 0-.318-.16 1.28 1.28 0 0 0-.385-.057c-.251 0-.47.06-.656.177-.186.116-.33.286-.433.509a1.917 1.917 0 0 0-.153.808c0 .326.05.6.153.821.104.222.25.39.436.503.186.113.401.17.646.17.137 0 .264-.018.38-.052a.998.998 0 0 0 .315-.15.915.915 0 0 0 .355-.57l1.037.006c-.027.21-.094.412-.202.607a1.843 1.843 0 0 1-.428.52 2.043 2.043 0 0 1-.639.362 2.475 2.475 0 0 1-.835.131c-.432 0-.819-.092-1.16-.276a2.02 2.02 0 0 1-.804-.802c-.195-.35-.293-.773-.293-1.27 0-.499.1-.923.298-1.273.199-.35.468-.616.81-.799.34-.184.723-.277 1.15-.277.28 0 .54.038.78.112.241.074.455.183.641.326.186.141.338.315.454.52.119.206.194.44.228.706Zm1.48 2.971h-1.1l1.673-4.572h1.32l1.671 4.572h-1.098L12.723 6.4h-.038L11.47 9.928ZM11.4 8.13h2.594v.754H11.4V8.13Zm6.736-1.46a.558.558 0 0 0-.243-.419c-.144-.1-.339-.15-.585-.15-.167 0-.308.023-.423.068a.595.595 0 0 0-.265.18.419.419 0 0 0-.09.264.36.36 0 0 0 .054.214.553.553 0 0 0 .168.159c.071.043.153.08.246.113.093.032.193.058.298.08l.436.1c.211.044.405.103.582.178.177.074.33.166.459.274a1.133 1.133 0 0 1 .411.891 1.21 1.21 0 0 1-.227.728 1.432 1.432 0 0 1-.643.475c-.28.112-.616.168-1.01.168-.392 0-.732-.057-1.023-.17a1.487 1.487 0 0 1-.676-.502c-.161-.224-.246-.5-.254-.829h.992a.676.676 0 0 0 .14.384.775.775 0 0 0 .333.23c.14.051.299.076.476.076.173 0 .324-.024.452-.071a.694.694 0 0 0 .3-.199.443.443 0 0 0 .107-.292.367.367 0 0 0-.098-.26.738.738 0 0 0-.279-.178 2.96 2.96 0 0 0-.447-.134l-.528-.125c-.408-.094-.73-.24-.967-.44-.237-.199-.354-.468-.353-.805a1.152 1.152 0 0 1 .235-.726 1.57 1.57 0 0 1 .655-.484c.277-.117.593-.175.946-.175.36 0 .674.058.942.175.27.116.48.277.63.484.15.207.226.446.231.719h-.982Zm1.738 3.258V5.356h1.024v1.886h2.08V5.356H24v4.572h-1.022V8.039h-2.08v1.889h-1.024Z" fill="#A6CFFF"/></g><defs><clipPath id="a"><path fill="#fff" d="M0 0h24v16H0z"/></clipPath><clipPath id="b"><path fill="#fff" transform="translate(0 5)" d="M0 0h3.852v5.58H0z"/></clipPath></defs></svg>