<svg xmlns="http://www.w3.org/2000/svg" fill="none" height="16" width="24"><g fill="#004c8f"><path d="M0 6h24v4H0z"/><path d="M3.975 6H24v4H3.975z"/></g><g fill="#fff"><path d="M5.233 8.95v-1.9h.604v.65h.604v-.65h.604v1.9H6.44V8.2h-.604v.75zm2.817-1.4h.151c.101 0 .201 0 .252.05.05 0 .05.05.101.1s.05.1.05.15v.2c0 .1 0 .2-.05.3-.05.05-.101.15-.151.15-.05.05-.151.05-.252.05H8v-1zm.252 1.4c.151 0 .252 0 .352-.05s.201-.05.252-.1l.151-.15c.05-.05.101-.15.151-.25s.05-.25.05-.4c0-.2-.05-.4-.101-.55-.101-.15-.201-.25-.352-.3s-.302-.1-.503-.1h-.855v1.9zm1.258 0v-1.9h1.459v.45h-.855v.3h.704v.45h-.704v.65H9.56"/><path d="M13.183 7.8h-.654c0-.1-.05-.15-.101-.2s-.151-.1-.201-.1c-.101 0-.201.05-.252.15s-.101.2-.101.4c0 .15-.008.211.054.324.03.054.047.089.097.126.066.047.101.05.201.05s.151 0 .252-.1a.38.38 0 0 0 .101-.25h.604a.79.79 0 0 1-.05.3c-.04.107-.151.25-.151.25s-.151.15-.302.2c-.101.05-.252.05-.402.05s-.302 0-.402-.05-.201-.1-.302-.2-.142-.14-.201-.25c-.085-.159-.101-.45-.101-.45s0-.3.05-.4c.05-.15.105-.231.189-.314a1.17 1.17 0 0 1 .293-.208c.151-.05.273-.078.474-.078.151 0 .252 0 .402.05.101.05.201.1.302.2s.119.137.159.243c.036.095.042.166.042.257z"/><path d="M15.315 7.45h-.17-.201v.35h.252c.12 0 .203-.007.245-.049.037-.036.042-.075.042-.125s-.005-.08-.042-.125c-.033-.04-.075-.052-.125-.052zm.293 1.547L15.296 9h-.956V7.1h.956a1.27 1.27 0 0 1 .503.1c.151.1.201.25.201.4s-.101.3-.252.4c.101 0 .226.066.277.166s.075.184.075.284c0 .05 0 .142-.034.215-.029.064-.073.176-.167.249-.069.054-.209.083-.209.083h-.084zm-.293-.765h-.17-.201v.35h.252c.12 0 .203-.007.245-.049.037-.036.042-.075.042-.125s-.005-.08-.042-.125c-.033-.04-.075-.052-.125-.052z" fill-rule="evenodd"/><path d="M17.459 8.3h-.402l.201-.7zm-.604.65l.05-.25h.604l.05.25h.604l-.704-1.9h-.654l-.704 1.9zm1.661 0v-1.9h.604l.654 1v-1h.604v1.9h-.604l-.654-1v1zm2.214 0v-1.9h.604v.6l.553-.6h.755l-.704.7.755 1.15h-.755l-.453-.75-.151.15v.6h-.604"/></g><path d="M0 6h4.025v4H0z" fill="#ed232a"/><g fill="#fff"><path d="M.654 6.7H3.27v2.6H.654z"/><path d="M1.761 6h.403v4h-.403z"/><path d="M0 7.8h4.025v.4H0z"/></g><path d="M1.359 7.4h1.208v1.2H1.359z" fill="#004c8f"/></svg>
