<svg xmlns="http://www.w3.org/2000/svg" fill="none" height="16" width="24"><clipPath id="A"><path d="M2 5h20v6.667H2z"/></clipPath><g clip-path="url(#A)" fill-rule="evenodd"><path d="M8.881 8.3c0-1.819-1.541-3.295-3.441-3.295S2 6.481 2 8.3c0 1.75 1.409 3.183 3.211 3.295V9.044c-.332-.097-.577-.386-.577-.743 0-.415.358-.758.806-.758s.806.343.806.758c0 .357-.245.65-.592.743v2.552c1.801-.112 3.226-1.545 3.226-3.295z" fill="#00b6f0"/><g fill="#271e79"><path d="M13.754 6.924l.626-1.198c-1.183-1.061-3.433-1.014-4.168.505-.196.404-.188.852-.004 1.325.09.227.252.512.509.715.132.105.637.343 1.044.52.381.166.908.285 1.149.61.275.372.105.834-.535.92-.358.047-.893-.098-1.688-.711l-.84 1.054c2.676 2.234 5.144.278 4.568-1.462-.147-.44-.448-.78-.825-1.039-.58-.401-1.183-.509-1.587-.678-.758-.318-.648-1.205.399-1.151.667.036.882.217 1.353.592zm1.357-1.923h2.593c.87 0 1.896.725 1.896 1.592v.581c-.03.458-.471.974-.758.974.445 0 .889.61.999 1.032.264 1.025-.298 2.483-2.133 2.483h-2.593V5.001zm1.391 1.216h1.018c.384 0 .697.31.697.689v.097c0 .325-.268.592-.595.592H17.2v1.231h.49c.445 0 .806.361.806.801s-.362.801-.806.801h-1.191l.004-4.212zm4.032-1.216H22v6.666h-1.466z"/></g></g></svg>
