<svg xmlns="http://www.w3.org/2000/svg" width="28" height="16" fill="none"><path fill="#000" d="M7.442 15.964v-1.062c0-.407-.247-.672-.672-.672a.698.698 0 00-.602.3.62.62 0 00-.566-.3.572.572 0 00-.496.248v-.213h-.372v1.7h.372v-.939c0-.3.16-.442.407-.442.248 0 .372.16.372.442v.938h.372v-.938c0-.3.177-.442.407-.442.247 0 .371.16.371.442v.938h.407zm5.505-1.699h-.602v-.513h-.372v.513h-.336v.337h.336v.778c0 .39.16.62.584.62a.99.99 0 00.46-.124l-.105-.319a.582.582 0 01-.32.089c-.176 0-.247-.106-.247-.283v-.761h.602v-.337zm3.15-.035a.499.499 0 00-.442.248v-.213h-.372v1.7h.372v-.956c0-.284.124-.443.354-.443.07 0 .16.018.23.036l.106-.354c-.07-.018-.177-.018-.248-.018zm-4.76.177c-.178-.124-.425-.177-.691-.177-.425 0-.708.212-.708.549 0 .283.212.442.584.495l.177.018c.195.035.301.088.301.177 0 .124-.142.212-.39.212a.977.977 0 01-.566-.177l-.177.284c.195.141.46.212.726.212.495 0 .779-.23.779-.549 0-.3-.23-.46-.584-.513l-.177-.018c-.16-.018-.284-.053-.284-.16 0-.123.124-.194.319-.194.212 0 .425.089.531.142l.16-.301zm9.875-.177a.499.499 0 00-.442.248v-.213h-.372v1.7h.372v-.956c0-.284.124-.443.354-.443.07 0 .16.018.23.036l.106-.354c-.07-.018-.177-.018-.248-.018zm-4.743.885c0 .513.354.885.903.885.247 0 .424-.053.601-.195l-.177-.3a.715.715 0 01-.442.159c-.3 0-.513-.213-.513-.55 0-.318.212-.53.513-.548.16 0 .3.053.442.16l.177-.301c-.177-.142-.354-.195-.601-.195-.549 0-.903.372-.903.885zm3.434 0v-.85h-.372v.213A.64.64 0 0019 14.23c-.478 0-.85.372-.85.885s.372.885.85.885c.248 0 .425-.089.531-.248v.212h.372v-.85zm-1.363 0c0-.301.195-.549.513-.549.301 0 .513.23.513.549 0 .3-.212.549-.513.549-.319-.018-.513-.248-.513-.55zm-4.443-.885c-.495 0-.85.354-.85.885 0 .53.355.885.868.885.248 0 .496-.07.69-.23l-.177-.266a.846.846 0 01-.495.177c-.23 0-.46-.106-.514-.407h1.257v-.141c.018-.55-.3-.903-.779-.903zm0 .319c.23 0 .39.141.425.407h-.885c.035-.23.195-.407.46-.407zm9.222.566v-1.522h-.372v.885a.64.64 0 00-.531-.248c-.478 0-.85.372-.85.885s.372.885.85.885c.248 0 .425-.089.53-.248v.212h.373v-.85zm-1.363 0c0-.301.194-.549.513-.549.3 0 .513.23.513.549 0 .3-.212.549-.513.549-.319-.018-.513-.248-.513-.55zm-12.425 0v-.85h-.372v.213a.64.64 0 00-.53-.248c-.479 0-.85.372-.85.885s.371.885.85.885c.247 0 .424-.089.53-.248v.212h.372v-.85zm-1.38 0c0-.301.194-.549.513-.549.3 0 .513.23.513.549 0 .3-.212.549-.513.549-.319-.018-.514-.248-.514-.55z"/><path fill="#FF5F00" d="M16.788 1.363h-5.576V11.38h5.576V1.364z"/><path fill="#EB001B" d="M11.566 6.372c0-2.036.956-3.841 2.425-5.01a6.368 6.368 0 00-10.3 5.009 6.368 6.368 0 0010.3 5.01 6.362 6.362 0 01-2.425-5.01z"/><path fill="#F79E1B" d="M24.31 6.372a6.368 6.368 0 01-10.301 5.008 6.335 6.335 0 002.425-5.008c0-2.036-.956-3.841-2.425-5.01A6.333 6.333 0 0117.939 0c3.521 0 6.37 2.867 6.37 6.372z"/></svg>