<svg xmlns="http://www.w3.org/2000/svg" fill="none" height="16" width="24"><path d="M21.754 6.445l1.241 2.554-2.608 2.555z" fill="#008c44"/><path d="M20.895 6.445l1.239 2.554-2.606 2.555z" fill="#f47920"/><g fill="#1b3281"><path d="M1.005 10.625l1.237-4.62h1.978c.618 0 1.031.101 1.241.31s.249.546.123 1.022c-.076.28-.192.515-.35.701s-.365.333-.621.442c.217.054.355.161.417.322s.054.396-.02.704l-.15.645v.017c-.043.181-.031.277.04.285l-.046.171H3.515l.022-.287c.01-.084.022-.148.034-.193l.125-.461c.063-.24.067-.407.008-.504s-.191-.148-.399-.148h-.562l-.429 1.593zM3.02 7.99h.602c.211 0 .367-.031.463-.096s.168-.175.21-.334.033-.275-.03-.339-.211-.097-.446-.097h-.568z"/><path d="M9.255 7.216l-.912 3.409H7.235l.136-.499c-.195.199-.395.349-.596.446a1.43 1.43 0 0 1-.632.146c-.183 0-.341-.034-.467-.103s-.224-.172-.288-.309c-.057-.12-.082-.268-.072-.444s.069-.467.179-.877l.473-1.769H7.18l-.472 1.761c-.069.258-.085.439-.052.538s.128.151.28.151a.5.5 0 0 0 .387-.174c.108-.116.191-.289.253-.519l.468-1.756zm-.44 3.409l1.236-4.62h1.7c.375 0 .665.023.872.073s.369.127.489.237a.95.95 0 0 1 .281.538c.036.215.015.465-.064.758-.139.516-.381.912-.727 1.189s-.776.41-1.288.41h-.796l-.378 1.415zm2.005-2.543h.427c.276 0 .471-.035.585-.104s.188-.192.236-.367.036-.301-.037-.37-.247-.104-.531-.104h-.427z"/><path d="M14.756 10.625l.012-.324c-.196.152-.393.266-.592.338a1.82 1.82 0 0 1-.635.11c-.343 0-.583-.097-.721-.284s-.159-.457-.066-.8.248-.589.477-.748.608-.277 1.142-.351l.272-.035c.395-.047.616-.156.664-.334.025-.097.01-.169-.049-.213s-.161-.068-.313-.068c-.126 0-.227.027-.311.083s-.145.14-.187.257h-1.182c.107-.384.325-.674.652-.868s.756-.292 1.289-.292c.25 0 .475.024.673.077s.344.122.438.21c.116.109.184.233.204.37s-.002.333-.071.589l-.508 1.901a.41.41 0 0 0-.011.168c.008.05.031.089.067.119l-.027.096zm.295-1.522a4.3 4.3 0 0 1-.504.161c-.326.091-.51.212-.55.362-.028.096-.016.171.029.227s.123.081.232.081c.201 0 .363-.053.483-.157s.211-.271.274-.499l.027-.11zm.931 2.866l.269-1.009h.347a.49.49 0 0 0 .272-.067c.065-.043.11-.12.136-.222a.82.82 0 0 0 .026-.146 1.94 1.94 0 0 0 0-.187l-.185-3.122h1.227l-.019 2.069 1.071-2.069h1.141l-1.894 3.393-.47.782a1.61 1.61 0 0 1-.281.323 1.04 1.04 0 0 1-.388.217c-.141.043-.356.065-.645.065-.083 0-.179-.002-.282-.007l-.324-.02z"/></g></svg>
