<svg xmlns="http://www.w3.org/2000/svg" fill="#ae285d" height="16" width="24"><path d="M3.415 5.276l.997 1.649-1.606 2.701-.625 1.032-2.029.003.066-.132 3.196-5.252zm14.716 1.351l1.121 2.01c-.132.003-.264-.004-.395 0l-.251-.45-.997-.004-.253.452c-.13-.001-.26.003-.389.001l1.164-2.011zm-.356 1.27l.68.004-.337-.611-.343.606zm1.695-1.278l1.686 1.423.012-1.298.362.006-.003 2-1.093-.912-.6-.514-.008 1.315c-.12 0-.24-.003-.36-.002l.003-2.019zM7.539 8.635l1.169-2.009 1.121 2.009h-.401l-.242-.45-1-.001-.259.455-.388-.005zm.81-.736l.684.001-.339-.609-.345.607zM13.09 6.8c.191-.09.414-.102.62-.062.179.036.322.158.431.294l-.288.145c-.128-.193-.433-.254-.619-.104-.099.068-.091.235.021.287.25.132.553.161.774.344s.217.552.008.744c-.224.219-.58.266-.878.184a.64.64 0 0 1-.471-.524l.365-.065c.015.114.059.239.171.296.177.091.433.068.555-.096a.26.26 0 0 0-.057-.366c-.245-.158-.571-.168-.791-.367-.116-.095-.164-.254-.125-.395.031-.144.154-.25.284-.315zm-3.144-.042c.137-.017.276-.011.413-.01l.442.633.459-.629.424-.003-.674.898.702.991c-.135.001-.269 0-.404-.002l-.513-.712-.531.714-.409.001.733-.988-.643-.894zm2.071-.009l.364-.001v1.889h-.37l.005-1.889zm3.543-.001c.312.013.647-.041.935.105.28.144.344.571.086.765.163.062.32.178.362.349.068.21-.052.442-.243.551-.348.184-.757.098-1.135.123l-.005-1.892zm.361.272l-.001.54c.135-.005.285.003.401-.078.118-.101.114-.31-.017-.399-.114-.069-.254-.061-.383-.062zm.002.787l.003.551c.182-.009.377.023.545-.063.149-.07.176-.3.038-.393-.166-.124-.39-.09-.586-.094zm6.027-1.06h.363l.003.747.902-.748.497.001-1.064.856 1.057 1.033c-.164-.002-.328.011-.492-.007l-.839-.832-.06.078-.005.763c-.122-.001-.243.002-.365.002l.004-1.892zM3.415 8.626l2.036.006 1.222 2.027H4.637L3.415 8.626z"/></svg>
