<svg xmlns="http://www.w3.org/2000/svg" fill="none" height="16" width="24" fill-rule="evenodd"><path d="M1 5.731h10.621l-3.448 4.675h-.828-.448H1zm11.379 0H23v4.675H9.724z" fill="#005ca9"/><path d="M17.517 7.775l.379.381c.069.069.138.139.172.208a3.2 3.2 0 0 0 .483.485l.379.381c.069.069.069.069.104.069V6.874h-.379v1.489l-.586-.589-.104-.104-.103-.104-.655-.693c-.035-.035-.035-.035-.035-.069-.034-.035-.035-.035-.069-.035v2.424h.379zm-4.448 1.177v-.727c.172-.035.483 0 .621.104s.138.381 0 .519c-.104.104-.483.139-.621.104zm0-1.039v-.658c.138-.035.448 0 .552.069.069.035.104.139.104.242.034.312-.414.381-.655.346zm.724.104c.172-.069.31-.173.345-.381.034-.242-.034-.45-.172-.554a.95.95 0 0 0-.552-.173h-.724v2.355h.793c.241-.035.414-.069.552-.208s.207-.381.138-.623c-.069-.346-.31-.381-.379-.416zm6.828.035l.276-.277.655-.693.138-.139h-.414-.069l-.379.416-.069.069-.517.554V6.944h-.414v2.355h.414v-.035-.9-.139l1 1.039c.035.035.035.035.103.035h.483l-.276-.312-.138-.139-.517-.554-.069-.069c-.103-.035-.207-.139-.207-.173zm-5.379.485l.379-.866.379.866zm-.379.727c.034-.035.172-.416.207-.416h1.034l.172.416h.414l-.552-1.212-.276-.623-.241-.519-.034-.069c-.034 0 0 0-.034.035l-.276.554-.276.623-.483 1.074c-.034.035-.069.104-.069.139zM3 8.156v1.108h.552V8.26v-.104-.035l.759-1.039c.034-.069.069-.104.103-.139h-.586l-.517.727c-.034-.035-.483-.727-.483-.727h-.655l.207.312.207.312zm3.103.623h-.897v-.45h.759v-.485h-.759v-.416h.897v-.485H4.69v2.355h1.414zm.586.45c.517.208 1.276.173 1.448-.45.103-.45-.138-.693-.483-.9l-.345-.208c-.276-.173-.138-.45.172-.381.103 0 .172.035.276.104.069.035.138.069.241.139v-.554c-.103-.035-.172-.069-.276-.069-1.034-.242-1.31.693-.828 1.108.069.069.103.104.207.139.138.104.276.173.448.277.241.173.138.519-.345.416-.241-.035-.448-.208-.483-.208z" fill="#fff"/><path d="M13.138 4l-4.483 8-1.31-1.385.897.035z" fill="#e30613"/></svg>
