<svg xmlns="http://www.w3.org/2000/svg" fill="none" height="16" width="24"><path d="M7.327 9.168a2.91 2.91 0 0 0-2.161-3.5 2.91 2.91 0 0 0-3.497 2.163 2.91 2.91 0 0 0 2.161 3.5 2.91 2.91 0 0 0 3.497-2.163zm8.966.995V9.106c0-.26-.098-.39-.341-.39-.098 0-.211.016-.276.033v1.544c0 .049-.049.098-.098.098h-.373c-.049 0-.097-.049-.097-.098V8.488c0-.065.049-.114.097-.13a2.33 2.33 0 0 1 .747-.13c.585 0 .91.309.91.878v1.203c0 .049-.049.098-.098.098h-.227a.24.24 0 0 1-.244-.244zm1.462-.634l-.016.146c0 .195.13.309.341.309a1.03 1.03 0 0 0 .471-.13c.016 0 .032-.016.049-.016.032 0 .049.016.065.033a.83.83 0 0 1 .049.065.35.35 0 0 1 .065.163c0 .081-.049.162-.114.195-.179.098-.39.146-.617.146-.26 0-.471-.065-.633-.195a.76.76 0 0 1-.26-.585v-.634c0-.504.325-.813.877-.813.536 0 .845.293.845.813v.39c0 .049-.049.098-.098.098h-1.023zm-.016-.358h.617v-.163c0-.195-.114-.325-.309-.325s-.309.114-.309.325zm4.142.358l-.016.146c0 .195.13.309.341.309a1.03 1.03 0 0 0 .471-.13c.016 0 .032-.016.049-.016.032 0 .049.016.065.033a.83.83 0 0 1 .049.065.35.35 0 0 1 .065.163c0 .081-.049.162-.114.195-.179.098-.39.146-.617.146-.26 0-.471-.065-.633-.195a.76.76 0 0 1-.26-.585v-.634c0-.504.325-.813.877-.813.536 0 .845.293.845.813v.39c0 .049-.049.098-.097.098h-1.023zm-.016-.358h.617v-.163c0-.195-.114-.325-.309-.325s-.309.114-.309.325zm-9.55 1.235h.227c.049 0 .097-.049.097-.098V9.106c0-.553-.292-.878-.78-.878a1.43 1.43 0 0 0-.406.065v-.601a.25.25 0 0 0-.244-.244h-.227c-.049 0-.097.049-.097.098v2.763c0 .049.049.098.097.098h.374c.049 0 .097-.049.097-.098V8.781c.081-.033.195-.049.276-.049.244 0 .341.114.341.39v1.056c.016.114.114.228.244.228zm2.452-1.365v.601c0 .504-.341.813-.909.813-.552 0-.909-.309-.909-.813v-.601c0-.504.341-.813.909-.813s.909.309.909.813zm-.568 0c0-.195-.114-.325-.325-.325s-.325.114-.325.325v.601c0 .195.114.309.325.309s.325-.114.325-.309zm-3.622-.276c0 .52-.39.878-.909.878-.13 0-.244-.016-.357-.065v.731c0 .049-.049.098-.097.098H8.84c-.049 0-.097-.049-.097-.098V7.725c0-.065.049-.114.097-.13a2.33 2.33 0 0 1 .747-.13c.585 0 .991.358.991.91zm-.585-.423c0-.26-.179-.39-.422-.39-.146 0-.244.049-.244.049v1.073c.097.049.146.065.26.065.244 0 .422-.146.422-.39v-.406zm11.076.423c0 .52-.39.878-.91.878-.13 0-.244-.016-.357-.065v.731c0 .049-.049.098-.097.098h-.374c-.049 0-.097-.049-.097-.098V7.725c0-.065.049-.114.097-.13a2.33 2.33 0 0 1 .747-.13c.585 0 .991.358.991.91zm-.585-.423c0-.26-.179-.39-.422-.39-.146 0-.244.049-.244.049v1.073c.097.049.146.065.26.065.244 0 .422-.146.422-.39v-.406z" fill="#5f259f"/><path d="M5.817 7.741c0-.114-.097-.211-.211-.211h-.39l-.893-1.024c-.081-.098-.211-.13-.341-.098l-.309.098c-.049.016-.065.081-.032.114l.974.926H3.137c-.049 0-.081.032-.081.081v.163c0 .114.097.211.211.211h.227v.78c0 .585.309.926.828.926.162 0 .292-.016.455-.081v.52c0 .146.114.26.26.26h.227c.049 0 .097-.049.097-.098V7.985h.374c.049 0 .081-.032.081-.081zM4.778 9.139c-.097.049-.227.065-.325.065-.26 0-.39-.13-.39-.423v-.78h.715z" fill="#fff"/></svg>
