<svg width="28" height="16" viewBox="0 0 28 16" fill="none" xmlns="http://www.w3.org/2000/svg">
<path d="M14.4779 6.37687C14.461 7.6306 15.6024 8.33022 16.457 8.7444C17.3398 9.16978 17.6321 9.44403 17.6321 9.82463C17.6265 10.4067 16.9293 10.6642 16.2771 10.6754C15.1414 10.6922 14.4779 10.3675 13.955 10.1269L13.5502 12.0354C14.0787 12.2761 15.0514 12.4888 16.0691 12.5C18.4474 12.5 19.9992 11.3302 20.0104 9.52239C20.0217 7.22761 16.8169 7.09888 16.8394 6.06903C16.845 5.7556 17.1486 5.42537 17.8008 5.34142C18.1269 5.29664 19.0209 5.26306 20.0329 5.73321L20.4321 3.88619C19.7462 3.63433 19.0265 3.5 18.3012 3.5C16.0691 3.5 14.4948 4.68097 14.4779 6.37687ZM24.2442 3.65672C23.8225 3.65112 23.4402 3.90299 23.2771 4.29478L19.8867 12.3601H22.2594L22.7317 11.0616H25.6329L25.9084 12.3601H28L26.1727 3.65672H24.2442ZM24.5759 6.00746L25.2618 9.27612H23.3839L24.5759 6.00746ZM11.5992 3.65672L9.72691 12.3657H11.9871L13.8651 3.65672H11.5992ZM8.25382 3.65672L5.89799 9.58395L4.94779 4.54664C4.83534 3.98694 4.39679 3.65672 3.90201 3.65672H0.0562249L0 3.91418C0.792771 4.08209 1.68675 4.36194 2.23213 4.65299C2.56386 4.83209 2.65944 4.98881 2.77189 5.41978L4.57671 12.3657H6.96627L10.6321 3.65672H8.25382Z" fill="url(#paint0_linear)"/>
<defs>
<linearGradient id="paint0_linear" x1="4.45703" y1="9.40649" x2="16.4537" y2="-1.63444" gradientUnits="userSpaceOnUse">
<stop stop-color="#222357"/>
<stop offset="1" stop-color="#254AA5"/>
</linearGradient>
</defs>
</svg>
