<svg width="32" height="32" fill="none" xmlns="http://www.w3.org/2000/svg"><path d="M16 32c8.837 0 16-7.163 16-16S24.837 0 16 0 0 7.163 0 16s7.163 16 16 16Z" fill="#08C"/><path fill-rule="evenodd" clip-rule="evenodd" d="m11.66 17.573 7.967-5.027c.398-.24.763-.111.463.155l-6.822 6.155-.265 2.833-1.343-4.116Zm10.26-7.484L7.747 15.555c-.967.388-.962.928-.176 1.169l3.534 1.103 1.353 4.146c.164.454.084.634.56.634.368 0 .53-.168.736-.368l1.767-1.72 3.676 2.718c.678.373 1.166.18 1.334-.629l2.414-11.373c.247-.99-.378-1.44-1.025-1.146Z" fill="#fff"/></svg>